<svg width="26" height="26" viewBox="0 0 26 26" fill="none" xmlns="http://www.w3.org/2000/svg">
<circle cx="13" cy="13" r="13" fill="white"/>
<path d="M12.1048 14.464L11.8808 6.8H14.0728L13.8328 14.464H12.1048ZM13.0168 18.112C12.6328 18.112 12.3181 17.9947 12.0728 17.76C11.8381 17.5253 11.7208 17.2427 11.7208 16.912C11.7208 16.5707 11.8381 16.2827 12.0728 16.048C12.3181 15.8133 12.6328 15.696 13.0168 15.696C13.3795 15.696 13.6781 15.8133 13.9128 16.048C14.1581 16.2827 14.2808 16.5707 14.2808 16.912C14.2808 17.2427 14.1581 17.5253 13.9128 17.76C13.6781 17.9947 13.3795 18.112 13.0168 18.112Z" fill="#01A8DB"/>
</svg>
