<svg width="59" height="59" viewBox="0 0 59 59" fill="none" xmlns="http://www.w3.org/2000/svg">
<path fill-rule="evenodd" clip-rule="evenodd" d="M0 5.8859C0 2.63521 2.63521 0 5.8859 0H52.9731C56.2238 0 58.859 2.63521 58.859 5.8859V52.9731C58.859 56.2238 56.2238 58.859 52.9731 58.859H5.8859C2.63521 58.859 0 56.2238 0 52.9731V5.8859ZM5.98663 25.1415H6.28596H17.2753C18.2583 25.1415 19.1378 24.9903 19.9177 24.6932L19.9216 24.6917L19.9256 24.6903C20.7253 24.4113 21.4087 23.9949 21.9801 23.4419L21.9818 23.4402L21.9835 23.4386C22.576 22.8831 23.0505 22.2054 23.4059 21.4012C23.7204 20.6894 23.9393 19.4586 24.0507 18.4391H5.98663V15.5302H24.0982C24.0414 14.5295 23.8695 13.9844 23.572 13.1094C23.2538 12.1927 22.7889 11.4232 22.1798 10.7952C21.5712 10.1871 20.8113 9.71261 19.8934 9.3752C18.9975 9.05818 17.9318 8.89582 16.6905 8.89582H6.28596H5.98663V5.9869H17.0999C19.3993 5.9869 21.3284 6.44271 22.8689 7.37491C24.4246 8.30451 25.5861 9.62942 26.3509 11.3402C27.1128 13.0443 27.4883 15.0569 27.4883 17.3696C27.4883 18.8969 27.2801 20.3025 26.8601 21.5836C26.4586 22.8872 25.8348 24.0257 24.987 24.9946C24.1355 25.9677 23.0633 26.7148 21.7772 27.2378C20.504 27.7829 19.0106 28.0504 17.3046 28.0504H5.98663V25.1415ZM52.3335 49.6868H52.6329V52.5957H41.3149C39.6089 52.5957 38.1154 52.3282 36.8423 51.7831C35.5562 51.2601 34.484 50.513 33.6325 49.5399C32.7847 48.571 32.1609 47.4325 31.7594 46.1289C31.3394 44.8478 31.1312 43.4422 31.1312 41.9149C31.1312 39.6022 31.5067 37.5896 32.2685 35.8855C33.0334 34.1747 34.1949 32.8498 35.7506 31.9202C37.2911 30.988 39.2202 30.5322 41.5196 30.5322H52.6329V33.4411H52.3335H41.929C40.6877 33.4411 39.622 33.6035 38.7261 33.9205C37.8082 34.2579 37.0483 34.7324 36.4397 35.3405C35.8306 35.9685 35.3657 36.738 35.0475 37.6547C34.75 38.5297 34.5781 39.0748 34.5213 40.0755H52.6329V42.9844H34.5688C34.6801 44.0039 34.8991 45.2347 35.2136 45.9465C35.5689 46.7507 36.0435 47.4284 36.636 47.9839L36.6377 47.9855L36.6394 47.9872C37.2108 48.5402 37.8942 48.9566 38.6938 49.2356L38.6978 49.237L38.7018 49.2385C39.4817 49.5356 40.3612 49.6868 41.3442 49.6868H52.3335ZM49.6862 6.26767V6.56701V17.5564C49.6862 18.5394 49.5351 19.4188 49.238 20.1987L49.2364 20.2027L49.2351 20.2067C48.9561 21.0064 48.5396 21.6897 47.9866 22.2611L47.985 22.2629L47.9833 22.2646C47.4279 22.8571 46.7502 23.3316 45.946 23.6869C45.2342 24.0014 44.0034 24.2204 42.9839 24.3318V6.26767H40.075V24.3792C39.0743 24.3224 38.5291 24.1505 37.6542 23.8531C36.7375 23.5349 35.968 23.0699 35.3399 22.4608C34.7318 21.8522 34.2574 21.0923 33.92 20.1744C33.6029 19.2786 33.4406 18.2129 33.4406 16.9715V6.56701V6.26767H30.5317V17.3809C30.5317 19.6804 30.9875 21.6094 31.9197 23.15C32.8493 24.7057 34.1742 25.8672 35.8849 26.632C37.5891 27.3938 39.6017 27.7693 41.9143 27.7693C43.4417 27.7693 44.8473 27.5612 46.1284 27.1411C47.432 26.7397 48.5704 26.1158 49.5393 25.268C50.5125 24.4165 51.2596 23.3444 51.7825 22.0582C52.3276 20.7851 52.5952 19.2916 52.5952 17.5856V6.26767H49.6862ZM49.6862 6.56701H49.9856L49.7273 6.56698L49.6862 6.56701ZM25.1413 52.3333V52.6326H28.0502V41.3146C28.0502 39.6086 27.7826 38.1152 27.2375 36.8421C26.7146 35.5559 25.9675 34.4837 24.9944 33.6322C24.0255 32.7845 22.887 32.1606 21.5834 31.7591C20.3023 31.3391 18.8967 31.1309 17.3694 31.1309C15.0567 31.1309 13.0441 31.5064 11.34 32.2683C9.6292 33.0331 8.30429 34.1946 7.3747 35.7503C6.44249 37.2908 5.98668 39.2199 5.98668 41.5193V52.6326H8.8956V52.3333V41.9287C8.8956 40.6874 9.05796 39.6217 9.37498 38.7258C9.7124 37.8079 10.1868 37.048 10.7949 36.4395C11.423 35.8303 12.1925 35.3654 13.1092 35.0472C13.9842 34.7497 14.5293 34.5778 15.53 34.521V52.6326H18.4389V34.5685C19.4584 34.6799 20.6892 34.8988 21.401 35.2133C22.2052 35.5687 22.8829 36.0432 23.4384 36.6357L23.44 36.6374L23.4416 36.6391C23.9947 37.2106 24.4111 37.8939 24.6901 38.6936L24.6915 38.6976L24.693 38.7015C24.9901 39.4814 25.1413 40.3609 25.1413 41.3439V52.3333Z" fill="#01A8DB"/>
</svg>
