<svg width="200" height="59" viewBox="0 0 200 59" fill="none" xmlns="http://www.w3.org/2000/svg">
<path d="M187.801 21.9448C187.412 21.9448 187.074 21.894 186.787 21.7923C186.5 21.6847 186.255 21.5561 186.051 21.4066L186.419 20.7337C186.586 20.8593 186.781 20.9699 187.002 21.0656C187.223 21.1613 187.493 21.2092 187.81 21.2092C188.204 21.2092 188.515 21.1045 188.743 20.8952C188.976 20.6858 189.093 20.4257 189.093 20.1146C189.093 19.8933 189.033 19.693 188.913 19.5135C188.794 19.3281 188.608 19.1786 188.357 19.065C188.112 18.9513 187.792 18.8945 187.397 18.8945H186.895V18.2396H187.361C187.714 18.2396 188.004 18.1857 188.231 18.0781C188.465 17.9704 188.638 17.8299 188.752 17.6564C188.865 17.483 188.922 17.3005 188.922 17.1092C188.922 16.828 188.814 16.6008 188.599 16.4273C188.39 16.2539 188.13 16.1671 187.819 16.1671C187.537 16.1671 187.286 16.215 187.065 16.3107C186.85 16.4004 186.673 16.5021 186.536 16.6157L186.204 15.9787C186.383 15.8591 186.613 15.7425 186.895 15.6288C187.176 15.5092 187.505 15.4494 187.881 15.4494C188.276 15.4494 188.611 15.5212 188.886 15.6647C189.161 15.8083 189.371 15.9997 189.514 16.2389C189.664 16.4722 189.739 16.7264 189.739 17.0015C189.739 17.3544 189.649 17.6504 189.469 17.8897C189.296 18.1289 189.048 18.3263 188.725 18.4818C189.102 18.6254 189.395 18.8377 189.604 19.1188C189.819 19.3939 189.927 19.7169 189.927 20.0877C189.927 20.3987 189.849 20.6978 189.694 20.9849C189.544 21.266 189.311 21.4963 188.994 21.6757C188.683 21.8551 188.285 21.9448 187.801 21.9448Z" fill="#01A8DB"/>
<path d="M192.796 21.9448C192.419 21.9448 192.069 21.8521 191.746 21.6667C191.429 21.4753 191.175 21.1823 190.984 20.7875C190.793 20.3928 190.697 19.8933 190.697 19.2893C190.697 18.7809 190.763 18.3024 190.894 17.8538C191.032 17.3992 191.235 16.9985 191.504 16.6516C191.779 16.3047 192.117 16.0326 192.518 15.8352C192.919 15.6378 193.385 15.5391 193.918 15.5391C193.971 15.5391 194.028 15.5421 194.088 15.5481C194.154 15.5481 194.211 15.5511 194.259 15.5571V16.2927C194.211 16.2868 194.157 16.2838 194.097 16.2838C194.037 16.2778 193.98 16.2748 193.927 16.2748C193.275 16.2748 192.736 16.4752 192.312 16.8759C191.893 17.2706 191.636 17.8149 191.54 18.5087C191.708 18.3472 191.923 18.2007 192.186 18.0691C192.449 17.9315 192.748 17.8628 193.083 17.8628C193.418 17.8628 193.717 17.9405 193.98 18.096C194.244 18.2515 194.45 18.4698 194.599 18.751C194.755 19.0261 194.833 19.355 194.833 19.7378C194.833 20.1744 194.743 20.5602 194.564 20.8952C194.39 21.2241 194.151 21.4813 193.846 21.6667C193.541 21.8521 193.191 21.9448 192.796 21.9448ZM192.832 21.2092C193.191 21.2092 193.478 21.0776 193.693 20.8144C193.915 20.5513 194.025 20.2253 194.025 19.8365C194.025 19.4477 193.921 19.1337 193.711 18.8945C193.502 18.6553 193.224 18.5356 192.877 18.5356C192.62 18.5356 192.375 18.5984 192.141 18.724C191.908 18.8496 191.702 19.0171 191.522 19.2264V19.4238C191.534 19.986 191.663 20.4257 191.908 20.7427C192.159 21.0537 192.467 21.2092 192.832 21.2092Z" fill="#01A8DB"/>
<path d="M197.662 21.9448C196.963 21.9448 196.43 21.6607 196.065 21.0925C195.701 20.5184 195.518 19.7169 195.518 18.6882C195.518 17.6534 195.704 16.855 196.074 16.2927C196.451 15.7305 196.987 15.4494 197.68 15.4494C198.38 15.4494 198.912 15.7335 199.277 16.3017C199.642 16.8699 199.825 17.6714 199.825 18.7061C199.825 19.7408 199.636 20.5393 199.259 21.1015C198.889 21.6637 198.356 21.9448 197.662 21.9448ZM197.671 21.2092C197.941 21.2092 198.171 21.1314 198.362 20.9759C198.56 20.8144 198.709 20.5513 198.811 20.1864C198.918 19.8216 198.972 19.3311 198.972 18.7151C198.972 17.8897 198.856 17.2617 198.622 16.831C198.395 16.4004 198.078 16.1851 197.671 16.1851C197.402 16.1851 197.169 16.2658 196.972 16.4273C196.78 16.5828 196.631 16.843 196.523 17.2078C196.421 17.5667 196.37 18.0571 196.37 18.6792C196.37 19.5046 196.484 20.1326 196.711 20.5632C196.945 20.9939 197.265 21.2092 197.671 21.2092Z" fill="#01A8DB"/>
<path fill-rule="evenodd" clip-rule="evenodd" d="M187.881 15.6249C187.523 15.6249 187.218 15.6818 186.963 15.7903L186.96 15.7915C186.754 15.8749 186.579 15.9585 186.435 16.0421L186.597 16.3547C186.715 16.2792 186.849 16.211 186.996 16.1493C187.243 16.0429 187.518 15.9918 187.819 15.9918C188.164 15.9918 188.465 16.0888 188.71 16.2915C188.967 16.4988 189.098 16.7765 189.098 17.1092C189.098 17.3376 189.029 17.5531 188.898 17.7526C188.763 17.9592 188.561 18.1189 188.306 18.237C188.048 18.3591 187.73 18.415 187.361 18.415H187.07V18.7191H187.397C187.806 18.7191 188.154 18.7776 188.43 18.9055C188.703 19.0294 188.918 19.198 189.06 19.4174C189.199 19.6262 189.268 19.8602 189.268 20.1147C189.268 20.4756 189.13 20.7828 188.861 21.025C188.593 21.2712 188.235 21.3846 187.81 21.3846C187.476 21.3846 187.182 21.3344 186.933 21.2267C186.769 21.1558 186.618 21.0766 186.48 20.9886L186.281 21.3515C186.443 21.4543 186.631 21.5466 186.847 21.6276C187.111 21.7207 187.427 21.7695 187.801 21.7695C188.265 21.7695 188.63 21.6834 188.906 21.5238L188.907 21.5231C189.2 21.3577 189.407 21.1501 189.539 20.9026L189.539 20.9014C189.682 20.6386 189.752 20.3681 189.752 20.0878C189.752 19.7536 189.655 19.4692 189.466 19.2269L189.465 19.2253L189.463 19.2236C189.277 18.9731 189.013 18.7793 188.662 18.6458L188.281 18.5007L188.649 18.3238C188.951 18.1783 189.174 17.998 189.327 17.7868L189.329 17.7845C189.482 17.5808 189.563 17.3235 189.563 17.0015C189.563 16.7602 189.498 16.5388 189.367 16.3336L189.365 16.3314L189.364 16.3292C189.239 16.1207 189.055 15.9506 188.805 15.8203C188.561 15.6929 188.255 15.6249 187.881 15.6249ZM186.827 15.4669C187.134 15.3365 187.487 15.274 187.881 15.274C188.297 15.274 188.661 15.3496 188.967 15.5093C189.267 15.6656 189.501 15.8775 189.663 16.1465C189.83 16.4072 189.914 16.6935 189.914 17.0015C189.914 17.3848 189.816 17.7192 189.611 17.9938C189.479 18.1752 189.31 18.3323 189.108 18.4662C189.364 18.6076 189.577 18.7892 189.743 19.0124C189.984 19.32 190.102 19.6811 190.102 20.0878C190.102 20.4292 190.017 20.7566 189.848 21.0679C189.681 21.3821 189.422 21.6347 189.081 21.828C188.736 22.0271 188.305 22.1203 187.801 22.1203C187.397 22.1203 187.039 22.0676 186.728 21.9577L186.725 21.9566C186.426 21.8445 186.166 21.7088 185.947 21.5479L185.824 21.457L186.362 20.4719L186.524 20.5934C186.679 20.7096 186.861 20.8136 187.072 20.9047C187.265 20.9884 187.509 21.0338 187.81 21.0338C188.173 21.0338 188.437 20.9381 188.624 20.7662L188.626 20.7647C188.822 20.5883 188.917 20.3755 188.917 20.1147C188.917 19.9271 188.867 19.7607 188.767 19.6109L188.766 19.6087C188.668 19.4579 188.513 19.328 188.285 19.2248L188.283 19.2242C188.069 19.125 187.777 19.07 187.397 19.07H186.719V18.0642H187.361C187.698 18.0642 187.96 18.0126 188.156 17.9196L188.158 17.9189C188.368 17.8217 188.513 17.7004 188.605 17.5603C188.702 17.413 188.747 17.2636 188.747 17.1092C188.747 16.8801 188.662 16.7035 188.489 16.564L188.487 16.5624C188.314 16.4188 188.095 16.3426 187.819 16.3426C187.558 16.3426 187.331 16.387 187.135 16.4717L187.132 16.4726C186.929 16.5576 186.768 16.6512 186.647 16.751L186.48 16.889L185.975 15.9202L186.106 15.8328C186.299 15.7047 186.54 15.5831 186.827 15.4669ZM197.68 15.6249C197.044 15.6249 196.564 15.8781 196.221 16.3899C195.876 16.9119 195.694 17.6711 195.694 18.6882C195.694 19.6992 195.873 20.463 196.213 20.9981C196.544 21.5137 197.02 21.7695 197.662 21.7695C198.299 21.7695 198.776 21.5162 199.113 21.005L199.114 21.0039C199.463 20.4821 199.649 19.7232 199.649 18.7061C199.649 17.6884 199.469 16.9252 199.13 16.3965C198.799 15.8807 198.323 15.6249 197.68 15.6249ZM195.929 16.1951C196.339 15.5829 196.93 15.274 197.68 15.274C198.437 15.274 199.026 15.5864 199.425 16.207C199.815 16.8148 200 17.6544 200 18.7061C200 19.7582 199.809 20.5961 199.405 21.1987C199.001 21.8115 198.413 22.1203 197.662 22.1203C196.906 22.1203 196.316 21.808 195.918 21.1874L195.917 21.1867C195.528 20.5734 195.343 19.7344 195.343 18.6882C195.343 17.6362 195.531 16.7986 195.928 16.1962L195.929 16.1951ZM193.918 15.7146C193.407 15.7146 192.968 15.8091 192.596 15.9926C192.218 16.1784 191.901 16.4339 191.642 16.7599C191.388 17.0882 191.194 17.4688 191.062 17.9039C190.936 18.3349 190.872 18.7964 190.872 19.2893C190.872 19.8763 190.965 20.3474 191.142 20.711C191.321 21.0803 191.553 21.3447 191.836 21.5156C192.131 21.6849 192.45 21.7695 192.796 21.7695C193.162 21.7695 193.48 21.6839 193.755 21.5169C194.032 21.3487 194.249 21.1155 194.408 20.8134L194.409 20.8124C194.573 20.5065 194.657 20.1499 194.657 19.7379C194.657 19.379 194.585 19.0811 194.447 18.8373L194.446 18.8354L194.445 18.8334C194.31 18.5795 194.125 18.3855 193.891 18.2471C193.658 18.1091 193.39 18.0382 193.083 18.0382C192.773 18.0382 192.502 18.1017 192.267 18.2246L192.265 18.2261C192.013 18.3517 191.814 18.4887 191.662 18.635L191.297 18.9868L191.366 18.4848C191.466 17.7603 191.738 17.1761 192.191 16.7483C192.652 16.3132 193.236 16.0994 193.927 16.0994C193.977 16.0994 194.029 16.1018 194.083 16.1064V15.7235H194.079L194.071 15.7227C194.016 15.7172 193.965 15.7146 193.918 15.7146ZM192.441 15.6779C192.87 15.4666 193.364 15.3638 193.918 15.3638H194.434V16.4502C194.434 16.4502 193.974 16.4502 193.927 16.4502C193.314 16.4502 192.82 16.6372 192.432 17.0035C192.141 17.2783 191.93 17.6354 191.806 18.0819C191.899 18.0227 191.999 17.9664 192.106 17.913C192.397 17.7612 192.724 17.6874 193.083 17.6874C193.447 17.6874 193.777 17.7721 194.07 17.9451C194.361 18.1173 194.589 18.3592 194.753 18.6666C194.926 18.9727 195.008 19.3321 195.008 19.7379C195.008 20.1988 194.913 20.6137 194.718 20.9775C194.531 21.3331 194.27 21.6142 193.937 21.8167C193.602 22.0205 193.22 22.1203 192.796 22.1203C192.389 22.1203 192.009 22.0198 191.659 21.8189L191.656 21.817C191.305 21.605 191.03 21.2836 190.826 20.8641C190.62 20.4382 190.521 19.9105 190.521 19.2893C190.521 18.7656 190.589 18.2704 190.726 17.8045L190.726 17.803C190.87 17.3296 191.082 16.9093 191.366 16.5441L191.367 16.5426C191.658 16.1752 192.017 15.8866 192.441 15.6779ZM196.861 16.2914C197.091 16.1029 197.364 16.0097 197.671 16.0097C198.157 16.0097 198.527 16.2744 198.777 16.7484C199.03 17.2166 199.148 17.8786 199.148 18.7151C199.148 19.3382 199.094 19.8472 198.979 20.2348C198.872 20.6179 198.709 20.9189 198.473 21.1117L198.473 21.1121C198.247 21.2954 197.977 21.3846 197.671 21.3846C197.186 21.3846 196.814 21.1203 196.557 20.6468L196.556 20.6451C196.309 20.1774 196.195 19.5158 196.195 18.6792C196.195 18.0503 196.246 17.5414 196.354 17.1601L196.355 17.1582C196.467 16.7767 196.631 16.4784 196.861 16.2914ZM197.671 16.3605C197.44 16.3605 197.247 16.4288 197.083 16.5631L197.082 16.5635C196.93 16.6874 196.794 16.9091 196.692 17.2566C196.596 17.5929 196.546 18.0647 196.546 18.6792C196.546 19.4929 196.659 20.087 196.866 20.4806C197.076 20.8678 197.344 21.0338 197.671 21.0338C197.904 21.0338 198.094 20.9677 198.251 20.8401C198.41 20.7101 198.545 20.4853 198.642 20.1394L198.643 20.1368C198.743 19.7949 198.797 19.3234 198.797 18.7151C198.797 17.9013 198.681 17.3077 198.468 16.9146L198.467 16.913C198.263 16.5262 197.999 16.3605 197.671 16.3605ZM192.058 18.5697C192.316 18.4307 192.59 18.3603 192.877 18.3603C193.269 18.3603 193.597 18.498 193.843 18.779C194.087 19.057 194.201 19.4152 194.201 19.8366C194.201 20.2605 194.079 20.6277 193.828 20.9264C193.578 21.2322 193.24 21.3846 192.832 21.3846C192.409 21.3846 192.052 21.2007 191.772 20.8529L191.769 20.85C191.493 20.4935 191.359 20.0126 191.347 19.4276L191.347 19.4239L191.347 19.1616L191.389 19.1123C191.582 18.8873 191.805 18.7059 192.058 18.5697ZM192.877 18.7111C192.65 18.7111 192.433 18.7663 192.224 18.8785C192.029 18.9838 191.853 19.1216 191.698 19.2928V19.422C191.709 19.9595 191.832 20.3569 192.046 20.6339C192.267 20.9072 192.526 21.0338 192.832 21.0338C193.142 21.0338 193.378 20.9233 193.558 20.7034L193.559 20.7016C193.75 20.4741 193.85 20.1898 193.85 19.8366C193.85 19.4804 193.755 19.2106 193.579 19.0101C193.407 18.8126 193.178 18.7111 192.877 18.7111Z" fill="#01A8DB"/>
<path d="M80.7571 37.8019C79.8616 37.8019 70.6614 37.8019 70.6614 37.8019V39.9243H80.784C82.3243 39.9243 83.6586 39.6825 84.7869 39.1989C85.9332 38.7333 86.8824 38.0706 87.6347 37.2109C88.3869 36.3512 88.9421 35.3393 89.3003 34.1751C89.6765 33.0288 89.8645 31.7661 89.8645 30.387C89.8645 28.2915 89.5242 26.4826 88.8436 24.9602C88.163 23.4378 87.1332 22.2647 85.7541 21.4408C84.3929 20.6169 82.6735 20.205 80.5959 20.205H70.6614V22.3274C70.6614 22.3274 79.3601 22.3274 80.2198 22.3274C81.384 22.3274 82.3959 22.4796 83.2556 22.7841C84.1332 23.1065 84.8675 23.5632 85.4586 24.1542C86.0496 24.7632 86.4974 25.5065 86.8018 26.3841C87.1063 27.2796 87.2765 27.826 87.3123 28.9723H70.6614V31.0946H87.2854C87.1959 32.0797 86.9809 33.4318 86.6407 34.202C86.3004 34.9721 85.8436 35.6258 85.2705 36.1631C84.7153 36.7005 84.0526 37.1034 83.2825 37.3721C82.5302 37.6587 81.6884 37.8019 80.7571 37.8019Z" fill="#01A8DB"/>
<path d="M98.8919 20.2082C100.53 20.2082 101.901 20.3647 103.006 20.6776C104.129 20.9905 104.966 21.5059 105.519 22.2238C106.089 22.9417 106.374 23.8988 106.374 25.0953C106.374 25.8684 106.227 26.5587 105.933 27.1661C105.657 27.7552 105.233 28.2522 104.663 28.6571C104.11 29.0437 103.429 29.3106 102.619 29.4578V29.5959C103.448 29.7247 104.193 29.964 104.856 30.3138C105.537 30.6635 106.071 31.1605 106.457 31.8048C106.844 32.449 107.037 33.2866 107.037 34.3174C107.037 35.5138 106.761 36.5354 106.209 37.3822C105.657 38.2105 104.865 38.8455 103.834 39.2873C102.822 39.7107 101.607 39.9224 100.19 39.9224H93.2593V20.2082H98.8919ZM99.3889 28.6019C101.082 28.6019 102.242 28.335 102.868 27.8012C103.494 27.249 103.807 26.4391 103.807 25.3714C103.807 24.2854 103.42 23.5123 102.647 23.0521C101.892 22.5735 100.677 22.3342 99.0023 22.3342H95.7443V28.6019H99.3889ZM95.7443 30.6727V37.8239H99.7202C101.469 37.8239 102.684 37.4834 103.365 36.8023C104.046 36.1213 104.386 35.2285 104.386 34.1241C104.386 33.4246 104.23 32.8172 103.917 32.3018C103.623 31.7864 103.116 31.3906 102.398 31.1145C101.699 30.82 100.742 30.6727 99.527 30.6727H95.7443Z" fill="#01A8DB"/>
<path d="M116.436 20.2082C119.013 20.2082 120.89 20.7144 122.068 21.7268C123.246 22.7392 123.835 24.1658 123.835 26.0065C123.835 26.8164 123.697 27.5987 123.421 28.3534C123.163 29.0897 122.731 29.7524 122.123 30.3414C121.516 30.9304 120.706 31.3998 119.694 31.7495C118.681 32.0809 117.439 32.2465 115.966 32.2465H113.702V39.9224H111.217V20.2082H116.436ZM116.215 22.3342H113.702V30.1205H115.69C116.942 30.1205 117.982 29.9917 118.81 29.734C119.638 29.4578 120.255 29.0253 120.66 28.4362C121.065 27.8472 121.268 27.0741 121.268 26.1169C121.268 24.8468 120.863 23.8988 120.053 23.273C119.243 22.6472 117.963 22.3342 116.215 22.3342Z" fill="#01A8DB"/>
<path d="M127.962 20.2082H130.282V31.0317C130.282 31.4918 130.272 31.998 130.254 32.5503C130.254 33.0841 130.245 33.6179 130.226 34.1517C130.208 34.6855 130.18 35.1641 130.144 35.5875C130.125 35.9924 130.107 36.3053 130.088 36.5262H130.199L141.05 20.2082H143.811V39.9224H141.492V29.2093C141.492 28.7123 141.501 28.1785 141.519 27.6079C141.538 27.0189 141.556 26.4575 141.574 25.9236C141.611 25.3714 141.639 24.8836 141.657 24.4603C141.676 24.0369 141.694 23.724 141.713 23.5215H141.602L130.723 39.9224H127.962V20.2082Z" fill="#01A8DB"/>
<path d="M163.513 39.9224H160.532L151.613 29.9272V39.9224H149.128V20.2082H151.613V29.7616L160.311 20.2082H163.127L154.568 29.7892L163.513 39.9224Z" fill="#01A8DB"/>
<path d="M180.754 39.9263V28.6106C180.754 25.1409 177.941 22.3281 174.472 22.3281C171.002 22.3281 168.189 25.1409 168.189 28.6106V39.9263H166.084V28.6106C166.084 23.9784 169.839 20.2233 174.472 20.2233C179.104 20.2233 182.859 23.9784 182.859 28.6106V39.9263H180.754Z" fill="#01A8DB"/>
<rect x="168.122" y="31.5067" width="12.629" height="2.10484" fill="#01A8DB"/>
<path fill-rule="evenodd" clip-rule="evenodd" d="M0 5.8859C0 2.63521 2.63521 0 5.8859 0H52.9731C56.2238 0 58.859 2.63521 58.859 5.8859V52.9731C58.859 56.2238 56.2238 58.859 52.9731 58.859H5.8859C2.63521 58.859 0 56.2238 0 52.9731V5.8859ZM5.98663 25.1415H6.28596H17.2753C18.2583 25.1415 19.1378 24.9903 19.9177 24.6932L19.9216 24.6917L19.9256 24.6903C20.7253 24.4113 21.4087 23.9949 21.9801 23.4419L21.9818 23.4402L21.9835 23.4386C22.576 22.8831 23.0505 22.2054 23.4059 21.4012C23.7204 20.6894 23.9393 19.4586 24.0507 18.4391H5.98663V15.5302H24.0982C24.0414 14.5295 23.8695 13.9844 23.572 13.1094C23.2538 12.1927 22.7889 11.4232 22.1798 10.7952C21.5712 10.1871 20.8113 9.71261 19.8934 9.3752C18.9975 9.05818 17.9318 8.89582 16.6905 8.89582H6.28596H5.98663V5.9869H17.0999C19.3993 5.9869 21.3284 6.44271 22.8689 7.37491C24.4246 8.30451 25.5861 9.62942 26.3509 11.3402C27.1128 13.0443 27.4883 15.0569 27.4883 17.3696C27.4883 18.8969 27.2801 20.3025 26.8601 21.5836C26.4586 22.8872 25.8348 24.0257 24.987 24.9946C24.1355 25.9677 23.0633 26.7148 21.7772 27.2378C20.504 27.7829 19.0106 28.0504 17.3046 28.0504H5.98663V25.1415ZM52.3335 49.6868H52.6329V52.5957H41.3149C39.6089 52.5957 38.1154 52.3282 36.8423 51.7831C35.5562 51.2601 34.484 50.513 33.6325 49.5399C32.7847 48.571 32.1609 47.4325 31.7594 46.1289C31.3394 44.8478 31.1312 43.4422 31.1312 41.9149C31.1312 39.6022 31.5067 37.5896 32.2685 35.8855C33.0334 34.1747 34.1949 32.8498 35.7506 31.9202C37.2911 30.988 39.2202 30.5322 41.5196 30.5322H52.6329V33.4411H52.3335H41.929C40.6877 33.4411 39.622 33.6035 38.7261 33.9205C37.8082 34.2579 37.0483 34.7324 36.4397 35.3405C35.8306 35.9685 35.3657 36.738 35.0475 37.6547C34.75 38.5297 34.5781 39.0748 34.5213 40.0755H52.6329V42.9844H34.5688C34.6801 44.0039 34.8991 45.2347 35.2136 45.9465C35.5689 46.7507 36.0435 47.4284 36.636 47.9839L36.6377 47.9855L36.6394 47.9872C37.2108 48.5402 37.8942 48.9566 38.6938 49.2356L38.6978 49.237L38.7018 49.2385C39.4817 49.5356 40.3612 49.6868 41.3442 49.6868H52.3335ZM49.6862 6.26767V6.56701V17.5564C49.6862 18.5394 49.5351 19.4188 49.238 20.1987L49.2364 20.2027L49.2351 20.2067C48.9561 21.0064 48.5396 21.6897 47.9866 22.2611L47.985 22.2629L47.9833 22.2646C47.4279 22.8571 46.7502 23.3316 45.946 23.6869C45.2342 24.0014 44.0034 24.2204 42.9839 24.3318V6.26767H40.075V24.3792C39.0743 24.3224 38.5291 24.1505 37.6542 23.8531C36.7375 23.5349 35.968 23.0699 35.3399 22.4608C34.7318 21.8522 34.2574 21.0923 33.92 20.1744C33.6029 19.2786 33.4406 18.2129 33.4406 16.9715V6.56701V6.26767H30.5317V17.3809C30.5317 19.6804 30.9875 21.6094 31.9197 23.15C32.8493 24.7057 34.1742 25.8672 35.8849 26.632C37.5891 27.3938 39.6017 27.7693 41.9143 27.7693C43.4417 27.7693 44.8473 27.5612 46.1284 27.1411C47.432 26.7397 48.5704 26.1158 49.5393 25.268C50.5125 24.4165 51.2596 23.3444 51.7825 22.0582C52.3276 20.7851 52.5952 19.2916 52.5952 17.5856V6.26767H49.6862ZM49.6862 6.56701H49.9856L49.7273 6.56698L49.6862 6.56701ZM25.1413 52.3333V52.6326H28.0502V41.3146C28.0502 39.6086 27.7826 38.1152 27.2375 36.8421C26.7146 35.5559 25.9675 34.4837 24.9944 33.6322C24.0255 32.7845 22.887 32.1606 21.5834 31.7591C20.3023 31.3391 18.8967 31.1309 17.3694 31.1309C15.0567 31.1309 13.0441 31.5064 11.34 32.2683C9.6292 33.0331 8.30429 34.1946 7.3747 35.7503C6.44249 37.2908 5.98668 39.2199 5.98668 41.5193V52.6326H8.8956V52.3333V41.9287C8.8956 40.6874 9.05796 39.6217 9.37498 38.7258C9.7124 37.8079 10.1868 37.048 10.7949 36.4395C11.423 35.8303 12.1925 35.3654 13.1092 35.0472C13.9842 34.7497 14.5293 34.5778 15.53 34.521V52.6326H18.4389V34.5685C19.4584 34.6799 20.6892 34.8988 21.401 35.2133C22.2052 35.5687 22.8829 36.0432 23.4384 36.6357L23.44 36.6374L23.4416 36.6391C23.9947 37.2106 24.4111 37.8939 24.6901 38.6936L24.6915 38.6976L24.693 38.7015C24.9901 39.4814 25.1413 40.3609 25.1413 41.3439V52.3333Z" fill="#01A8DB"/>
<g opacity="0.8">
<path d="M73.4714 46.6655C73.1686 46.6655 72.8949 46.7187 72.6505 46.8249C72.4061 46.9259 72.1989 47.0773 72.0288 47.2792C71.8588 47.4758 71.7286 47.7176 71.6383 48.0045C71.5479 48.2862 71.5028 48.605 71.5028 48.961C71.5028 49.4286 71.5745 49.8351 71.718 50.1804C71.8668 50.5258 72.0846 50.7915 72.3715 50.9775C72.6638 51.1634 73.0278 51.2564 73.4635 51.2564C73.7132 51.2564 73.9497 51.2352 74.1728 51.1927C74.396 51.1501 74.6139 51.097 74.8264 51.0333V51.6549C74.6139 51.7346 74.3933 51.7931 74.1649 51.8303C73.9417 51.8675 73.6734 51.8861 73.3599 51.8861C72.7807 51.8861 72.2972 51.7665 71.9093 51.5274C71.5214 51.2883 71.2291 50.9482 71.0325 50.5072C70.8412 50.0662 70.7456 49.5481 70.7456 48.953C70.7456 48.5226 70.8041 48.1294 70.921 47.7734C71.0432 47.4174 71.2185 47.1092 71.447 46.8489C71.6808 46.5885 71.9677 46.3892 72.3078 46.2511C72.6478 46.1076 73.0384 46.0359 73.4794 46.0359C73.7717 46.0359 74.0533 46.0651 74.3243 46.1236C74.5953 46.182 74.837 46.2644 75.0496 46.3706L74.7626 46.9764C74.5873 46.8967 74.3907 46.8249 74.1728 46.7612C73.9603 46.6974 73.7265 46.6655 73.4714 46.6655Z" fill="#01A8DB"/>
<path d="M78.9218 48.1241H77.527V51.8064H76.8336V48.1241H75.4547V47.5343H78.9218V48.1241Z" fill="#01A8DB"/>
<path d="M81.7958 47.4546C82.3218 47.4546 82.7442 47.6379 83.0631 48.0045C83.3872 48.3712 83.5492 48.9238 83.5492 49.6624C83.5492 50.1459 83.4749 50.555 83.3261 50.8898C83.1826 51.2192 82.978 51.469 82.7124 51.639C82.452 51.8037 82.1438 51.8861 81.7878 51.8861C81.57 51.8861 81.376 51.8568 81.206 51.7984C81.036 51.74 80.8898 51.6656 80.7676 51.5752C80.6507 51.4796 80.5498 51.376 80.4647 51.2644H80.4169C80.4276 51.3547 80.4382 51.469 80.4488 51.6071C80.4594 51.7453 80.4647 51.8648 80.4647 51.9658V53.7192H79.7634V47.5343H80.3372L80.4329 48.1161H80.4647C80.5498 47.9939 80.6507 47.8823 80.7676 47.7814C80.8898 47.6804 81.0333 47.6007 81.198 47.5423C81.368 47.4838 81.5673 47.4546 81.7958 47.4546ZM81.6683 48.0444C81.3813 48.0444 81.1502 48.1002 80.9748 48.2118C80.7995 48.318 80.672 48.4801 80.5923 48.698C80.5126 48.9158 80.4701 49.1921 80.4647 49.5269V49.6624C80.4647 50.0131 80.5019 50.3106 80.5763 50.555C80.6507 50.7995 80.7756 50.9854 80.9509 51.113C81.1316 51.2405 81.376 51.3042 81.6842 51.3042C81.9446 51.3042 82.1571 51.2325 82.3218 51.089C82.4919 50.9456 82.6167 50.7516 82.6964 50.5072C82.7814 50.2575 82.824 49.9732 82.824 49.6544C82.824 49.1655 82.7283 48.775 82.537 48.4828C82.351 48.1905 82.0615 48.0444 81.6683 48.0444Z" fill="#01A8DB"/>
<path d="M86.2849 47.4626C86.8057 47.4626 87.1909 47.5768 87.4406 47.8053C87.6904 48.0338 87.8152 48.3977 87.8152 48.8972V51.8064H87.3051L87.1696 51.2006H87.1377C87.0155 51.3547 86.888 51.4849 86.7552 51.5912C86.6276 51.6921 86.4789 51.7665 86.3088 51.8143C86.1441 51.8622 85.9422 51.8861 85.7031 51.8861C85.448 51.8861 85.2169 51.8409 85.0097 51.7506C84.8078 51.6602 84.6484 51.5221 84.5315 51.3361C84.4146 51.1448 84.3561 50.9057 84.3561 50.6188C84.3561 50.1937 84.5235 49.8669 84.8582 49.6385C85.193 49.4047 85.7084 49.2771 86.4045 49.2559L87.1298 49.232V48.9769C87.1298 48.6209 87.0527 48.3738 86.8986 48.2357C86.7445 48.0975 86.5267 48.0285 86.2451 48.0285C86.0219 48.0285 85.8094 48.063 85.6075 48.1321C85.4055 48.1958 85.2169 48.2702 85.0416 48.3552L84.8264 47.8292C85.0123 47.7282 85.2328 47.6432 85.4879 47.5741C85.7429 47.4998 86.0086 47.4626 86.2849 47.4626ZM86.4922 49.7421C85.9608 49.7633 85.5915 49.8483 85.3843 49.9971C85.1824 50.1459 85.0814 50.3558 85.0814 50.6268C85.0814 50.8659 85.1531 51.0412 85.2966 51.1528C85.4454 51.2644 85.634 51.3202 85.8625 51.3202C86.2238 51.3202 86.524 51.2219 86.7631 51.0253C87.0023 50.8234 87.1218 50.5152 87.1218 50.1007V49.7182L86.4922 49.7421Z" fill="#01A8DB"/>
<path d="M92.0837 48.1241H90.6889V51.8064H89.9955V48.1241H88.6166V47.5343H92.0837V48.1241Z" fill="#01A8DB"/>
<path d="M94.4972 47.4546C94.8639 47.4546 95.1774 47.5343 95.4377 47.6937C95.7034 47.8531 95.9053 48.0789 96.0435 48.3712C96.1869 48.6581 96.2587 48.9955 96.2587 49.3834V49.8058H93.3336C93.3442 50.2894 93.4664 50.6586 93.7002 50.9137C93.9393 51.1634 94.2714 51.2883 94.6965 51.2883C94.9675 51.2883 95.2066 51.2644 95.4138 51.2166C95.6264 51.1634 95.8442 51.089 96.0674 50.9934V51.6071C95.8495 51.7028 95.6343 51.7718 95.4218 51.8143C95.2093 51.8622 94.9569 51.8861 94.6646 51.8861C94.2608 51.8861 93.9021 51.8037 93.5886 51.639C93.2804 51.4743 93.0387 51.2299 92.8633 50.9057C92.6933 50.5763 92.6083 50.1751 92.6083 49.7022C92.6083 49.2346 92.6853 48.8335 92.8394 48.4987C92.9988 48.1639 93.2193 47.9062 93.501 47.7256C93.7879 47.5449 94.12 47.4546 94.4972 47.4546ZM94.4893 48.0285C94.1545 48.0285 93.8888 48.1374 93.6922 48.3552C93.501 48.5678 93.3867 48.8653 93.3495 49.2479H95.5254C95.5254 49.0035 95.4882 48.7909 95.4138 48.6103C95.3394 48.4296 95.2252 48.2888 95.0711 48.1879C94.9223 48.0816 94.7284 48.0285 94.4893 48.0285Z" fill="#01A8DB"/>
<path d="M99.9525 47.5343V48.1241H98.0476V51.8064H97.3463V47.5343H99.9525Z" fill="#01A8DB"/>
<path d="M101.456 50.1406C101.456 50.1884 101.453 50.2575 101.448 50.3478C101.448 50.4328 101.445 50.5258 101.44 50.6268C101.435 50.7224 101.429 50.8154 101.424 50.9057C101.419 50.9907 101.413 51.0598 101.408 51.113L103.696 47.5343H104.556V51.8064H103.903V49.2878C103.903 49.2027 103.903 49.0912 103.903 48.953C103.908 48.8149 103.913 48.6794 103.919 48.5465C103.924 48.4084 103.929 48.3048 103.935 48.2357L101.663 51.8064H100.794V47.5343H101.456V50.1406Z" fill="#01A8DB"/>
<path d="M106.577 50.1406C106.577 50.1884 106.575 50.2575 106.569 50.3478C106.569 50.4328 106.567 50.5258 106.561 50.6268C106.556 50.7224 106.551 50.8154 106.546 50.9057C106.54 50.9907 106.535 51.0598 106.53 51.113L108.817 47.5343H109.678V51.8064H109.024V49.2878C109.024 49.2027 109.024 49.0912 109.024 48.953C109.03 48.8149 109.035 48.6794 109.04 48.5465C109.046 48.4084 109.051 48.3048 109.056 48.2357L106.785 51.8064H105.916V47.5343H106.577V50.1406Z" fill="#01A8DB"/>
<path d="M117.037 47.5343V51.8064H116.336V48.1321H114.128V51.8064H113.427V47.5343H117.037Z" fill="#01A8DB"/>
<path d="M120.433 47.4546C120.959 47.4546 121.381 47.6379 121.7 48.0045C122.024 48.3712 122.186 48.9238 122.186 49.6624C122.186 50.1459 122.112 50.555 121.963 50.8898C121.82 51.2192 121.615 51.469 121.35 51.639C121.089 51.8037 120.781 51.8861 120.425 51.8861C120.207 51.8861 120.013 51.8568 119.843 51.7984C119.673 51.74 119.527 51.6656 119.405 51.5752C119.288 51.4796 119.187 51.376 119.102 51.2644H119.054C119.065 51.3547 119.075 51.469 119.086 51.6071C119.097 51.7453 119.102 51.8648 119.102 51.9658V53.7192H118.401V47.5343H118.974L119.07 48.1161H119.102C119.187 47.9939 119.288 47.8823 119.405 47.7814C119.527 47.6804 119.671 47.6007 119.835 47.5423C120.005 47.4838 120.205 47.4546 120.433 47.4546ZM120.305 48.0444C120.019 48.0444 119.787 48.1002 119.612 48.2118C119.437 48.318 119.309 48.4801 119.229 48.698C119.15 48.9158 119.107 49.1921 119.102 49.5269V49.6624C119.102 50.0131 119.139 50.3106 119.214 50.555C119.288 50.7995 119.413 50.9854 119.588 51.113C119.769 51.2405 120.013 51.3042 120.321 51.3042C120.582 51.3042 120.794 51.2325 120.959 51.089C121.129 50.9456 121.254 50.7516 121.334 50.5072C121.419 50.2575 121.461 49.9732 121.461 49.6544C121.461 49.1655 121.366 48.775 121.174 48.4828C120.988 48.1905 120.699 48.0444 120.305 48.0444Z" fill="#01A8DB"/>
<path d="M124.922 47.4626C125.443 47.4626 125.828 47.5768 126.078 47.8053C126.328 48.0338 126.452 48.3977 126.452 48.8972V51.8064H125.942L125.807 51.2006H125.775C125.653 51.3547 125.525 51.4849 125.392 51.5912C125.265 51.6921 125.116 51.7665 124.946 51.8143C124.781 51.8622 124.579 51.8861 124.34 51.8861C124.085 51.8861 123.854 51.8409 123.647 51.7506C123.445 51.6602 123.286 51.5221 123.169 51.3361C123.052 51.1448 122.993 50.9057 122.993 50.6188C122.993 50.1937 123.161 49.8669 123.495 49.6385C123.83 49.4047 124.346 49.2771 125.042 49.2559L125.767 49.232V48.9769C125.767 48.6209 125.69 48.3738 125.536 48.2357C125.382 48.0975 125.164 48.0285 124.882 48.0285C124.659 48.0285 124.447 48.063 124.245 48.1321C124.043 48.1958 123.854 48.2702 123.679 48.3552L123.464 47.8292C123.65 47.7282 123.87 47.6432 124.125 47.5741C124.38 47.4998 124.646 47.4626 124.922 47.4626ZM125.129 49.7421C124.598 49.7633 124.229 49.8483 124.021 49.9971C123.82 50.1459 123.719 50.3558 123.719 50.6268C123.719 50.8659 123.79 51.0412 123.934 51.1528C124.083 51.2644 124.271 51.3202 124.5 51.3202C124.861 51.3202 125.161 51.2219 125.4 51.0253C125.639 50.8234 125.759 50.5152 125.759 50.1007V49.7182L125.129 49.7421Z" fill="#01A8DB"/>
<path d="M131.207 48.6103C131.207 48.876 131.127 49.0832 130.968 49.232C130.809 49.3807 130.604 49.4817 130.354 49.5348V49.5667C130.62 49.6039 130.851 49.6996 131.048 49.8536C131.244 50.0024 131.343 50.2362 131.343 50.555C131.343 50.7357 131.308 50.9031 131.239 51.0572C131.175 51.2113 131.074 51.3441 130.936 51.4557C130.798 51.5673 130.62 51.6549 130.402 51.7187C130.184 51.7771 129.921 51.8064 129.613 51.8064H127.772V47.5343H129.605C129.908 47.5343 130.179 47.5688 130.418 47.6379C130.662 47.7017 130.854 47.8133 130.992 47.9727C131.135 48.1268 131.207 48.3393 131.207 48.6103ZM130.617 50.555C130.617 50.3106 130.524 50.1353 130.338 50.029C130.152 49.9227 129.879 49.8696 129.517 49.8696H128.473V51.2405H129.533C129.884 51.2405 130.152 51.19 130.338 51.089C130.524 50.9828 130.617 50.8048 130.617 50.555ZM130.498 48.698C130.498 48.496 130.423 48.3499 130.275 48.2596C130.131 48.1639 129.895 48.1161 129.565 48.1161H128.473V49.2878H129.438C129.783 49.2878 130.046 49.2399 130.227 49.1443C130.407 49.0487 130.498 48.8999 130.498 48.698Z" fill="#01A8DB"/>
<path d="M133.026 50.1406C133.026 50.1884 133.023 50.2575 133.018 50.3478C133.018 50.4328 133.015 50.5258 133.01 50.6268C133.004 50.7224 132.999 50.8154 132.994 50.9057C132.988 50.9907 132.983 51.0598 132.978 51.113L135.265 47.5343H136.126V51.8064H135.473V49.2878C135.473 49.2027 135.473 49.0912 135.473 48.953C135.478 48.8149 135.483 48.6794 135.488 48.5465C135.494 48.4084 135.499 48.3048 135.504 48.2357L133.233 51.8064H132.364V47.5343H133.026V50.1406Z" fill="#01A8DB"/>
<path d="M140.738 51.8064H140.028V48.1161H138.769C138.716 48.7909 138.649 49.3675 138.57 49.8457C138.49 50.3186 138.389 50.7038 138.267 51.0014C138.145 51.2989 137.998 51.5168 137.828 51.6549C137.658 51.7931 137.459 51.8622 137.231 51.8622C137.162 51.8622 137.092 51.8568 137.023 51.8462C136.96 51.8409 136.906 51.8276 136.864 51.8064V51.2803C136.896 51.291 136.93 51.2989 136.968 51.3042C137.005 51.3096 137.042 51.3122 137.079 51.3122C137.196 51.3122 137.302 51.2644 137.398 51.1687C137.494 51.0731 137.579 50.927 137.653 50.7304C137.733 50.5338 137.804 50.2867 137.868 49.9891C137.932 49.6863 137.988 49.3303 138.036 48.9211C138.083 48.512 138.126 48.0497 138.163 47.5343H140.738V51.8064Z" fill="#01A8DB"/>
<path d="M144.062 49.2878C144.434 49.2878 144.742 49.3329 144.987 49.4233C145.231 49.5136 145.414 49.6491 145.537 49.8297C145.664 50.0051 145.728 50.2283 145.728 50.4992C145.728 50.7649 145.667 50.9961 145.545 51.1927C145.428 51.3893 145.244 51.5407 144.995 51.647C144.745 51.7532 144.423 51.8064 144.03 51.8064H142.093V47.5343H142.795V49.2878H144.062ZM145.027 50.5391C145.027 50.2787 144.934 50.1034 144.748 50.0131C144.567 49.9174 144.312 49.8696 143.982 49.8696H142.795V51.2405H143.998C144.296 51.2405 144.54 51.1873 144.732 51.0811C144.928 50.9748 145.027 50.7941 145.027 50.5391Z" fill="#01A8DB"/>
<path d="M147.527 47.5343V49.3117H149.847V47.5343H150.548V51.8064H149.847V49.9015H147.527V51.8064H146.826V47.5343H147.527Z" fill="#01A8DB"/>
<path d="M151.901 51.8064V47.5343H152.602V49.2878H153.71C154.082 49.2878 154.387 49.3329 154.627 49.4233C154.866 49.5136 155.044 49.6491 155.161 49.8297C155.277 50.0051 155.336 50.2283 155.336 50.4992C155.336 50.7649 155.277 50.9961 155.161 51.1927C155.049 51.3893 154.871 51.5407 154.627 51.647C154.387 51.7532 154.071 51.8064 153.678 51.8064H151.901ZM153.614 51.2405C153.917 51.2405 154.164 51.19 154.356 51.089C154.547 50.9828 154.642 50.7995 154.642 50.5391C154.642 50.2787 154.555 50.1034 154.379 50.0131C154.204 49.9174 153.952 49.8696 153.622 49.8696H152.602V51.2405H153.614ZM156.045 51.8064V47.5343H156.747V51.8064H156.045Z" fill="#01A8DB"/>
<path d="M159.116 49.6225L157.642 47.5343H158.439L159.539 49.1443L160.631 47.5343H161.42L159.945 49.6225L161.499 51.8064H160.702L159.539 50.1007L158.359 51.8064H157.57L159.116 49.6225Z" fill="#01A8DB"/>
<path d="M166.745 47.4546C167.271 47.4546 167.693 47.6379 168.012 48.0045C168.336 48.3712 168.498 48.9238 168.498 49.6624C168.498 50.1459 168.424 50.555 168.275 50.8898C168.132 51.2192 167.927 51.469 167.661 51.639C167.401 51.8037 167.093 51.8861 166.737 51.8861C166.519 51.8861 166.325 51.8568 166.155 51.7984C165.985 51.74 165.839 51.6656 165.717 51.5752C165.6 51.4796 165.499 51.376 165.414 51.2644H165.366C165.376 51.3547 165.387 51.469 165.398 51.6071C165.408 51.7453 165.414 51.8648 165.414 51.9658V53.7192H164.712V47.5343H165.286L165.382 48.1161H165.414C165.499 47.9939 165.6 47.8823 165.717 47.7814C165.839 47.6804 165.982 47.6007 166.147 47.5423C166.317 47.4838 166.516 47.4546 166.745 47.4546ZM166.617 48.0444C166.33 48.0444 166.099 48.1002 165.924 48.2118C165.748 48.318 165.621 48.4801 165.541 48.698C165.462 48.9158 165.419 49.1921 165.414 49.5269V49.6624C165.414 50.0131 165.451 50.3106 165.525 50.555C165.6 50.7995 165.725 50.9854 165.9 51.113C166.081 51.2405 166.325 51.3042 166.633 51.3042C166.893 51.3042 167.106 51.2325 167.271 51.089C167.441 50.9456 167.566 50.7516 167.645 50.5072C167.73 50.2575 167.773 49.9732 167.773 49.6544C167.773 49.1655 167.677 48.775 167.486 48.4828C167.3 48.1905 167.01 48.0444 166.617 48.0444Z" fill="#01A8DB"/>
<path d="M171.266 47.4546C171.632 47.4546 171.946 47.5343 172.206 47.6937C172.472 47.8531 172.674 48.0789 172.812 48.3712C172.955 48.6581 173.027 48.9955 173.027 49.3834V49.8058H170.102C170.113 50.2894 170.235 50.6586 170.469 50.9137C170.708 51.1634 171.04 51.2883 171.465 51.2883C171.736 51.2883 171.975 51.2644 172.182 51.2166C172.395 51.1634 172.613 51.089 172.836 50.9934V51.6071C172.618 51.7028 172.403 51.7718 172.19 51.8143C171.978 51.8622 171.725 51.8861 171.433 51.8861C171.029 51.8861 170.671 51.8037 170.357 51.639C170.049 51.4743 169.807 51.2299 169.632 50.9057C169.462 50.5763 169.377 50.1751 169.377 49.7022C169.377 49.2346 169.454 48.8335 169.608 48.4987C169.767 48.1639 169.988 47.9062 170.269 47.7256C170.556 47.5449 170.888 47.4546 171.266 47.4546ZM171.258 48.0285C170.923 48.0285 170.657 48.1374 170.461 48.3552C170.269 48.5678 170.155 48.8653 170.118 49.2479H172.294C172.294 49.0035 172.257 48.7909 172.182 48.6103C172.108 48.4296 171.994 48.2888 171.84 48.1879C171.691 48.0816 171.497 48.0285 171.258 48.0285Z" fill="#01A8DB"/>
<path d="M179.909 47.5343V51.8064H174.115V47.5343H174.816V51.2166H176.657V47.5343H177.359V51.2166H179.208V47.5343H179.909Z" fill="#01A8DB"/>
<path d="M182.925 47.4546C183.292 47.4546 183.606 47.5343 183.866 47.6937C184.132 47.8531 184.333 48.0789 184.472 48.3712C184.615 48.6581 184.687 48.9955 184.687 49.3834V49.8058H181.762C181.772 50.2894 181.895 50.6586 182.128 50.9137C182.367 51.1634 182.7 51.2883 183.125 51.2883C183.396 51.2883 183.635 51.2644 183.842 51.2166C184.055 51.1634 184.272 51.089 184.496 50.9934V51.6071C184.278 51.7028 184.062 51.7718 183.85 51.8143C183.637 51.8622 183.385 51.8861 183.093 51.8861C182.689 51.8861 182.33 51.8037 182.017 51.639C181.709 51.4743 181.467 51.2299 181.291 50.9057C181.121 50.5763 181.036 50.1751 181.036 49.7022C181.036 49.2346 181.113 48.8335 181.268 48.4987C181.427 48.1639 181.647 47.9062 181.929 47.7256C182.216 47.5449 182.548 47.4546 182.925 47.4546ZM182.917 48.0285C182.583 48.0285 182.317 48.1374 182.12 48.3552C181.929 48.5678 181.815 48.8653 181.778 49.2479H183.954C183.954 49.0035 183.916 48.7909 183.842 48.6103C183.768 48.4296 183.653 48.2888 183.499 48.1879C183.35 48.0816 183.157 48.0285 182.917 48.0285Z" fill="#01A8DB"/>
<path d="M186.476 47.5343V49.3117H188.795V47.5343H189.497V51.8064H188.795V49.9015H186.476V51.8064H185.774V47.5343H186.476Z" fill="#01A8DB"/>
<path d="M191.511 50.1406C191.511 50.1884 191.508 50.2575 191.503 50.3478C191.503 50.4328 191.5 50.5258 191.495 50.6268C191.49 50.7224 191.484 50.8154 191.479 50.9057C191.474 50.9907 191.468 51.0598 191.463 51.113L193.75 47.5343H194.611V51.8064H193.958V49.2878C193.958 49.2027 193.958 49.0912 193.958 48.953C193.963 48.8149 193.968 48.6794 193.974 48.5465C193.979 48.4084 193.984 48.3048 193.99 48.2357L191.718 51.8064H190.849V47.5343H191.511V50.1406Z" fill="#01A8DB"/>
<path d="M199.43 45.7649C199.409 46.0306 199.342 46.2537 199.231 46.4344C199.124 46.6151 198.965 46.7506 198.752 46.8409C198.54 46.9312 198.264 46.9764 197.923 46.9764C197.578 46.9764 197.299 46.9312 197.087 46.8409C196.879 46.7506 196.728 46.6177 196.632 46.4424C196.537 46.2617 196.478 46.0359 196.457 45.7649H197.111C197.137 46.0518 197.211 46.2458 197.334 46.3467C197.461 46.4424 197.663 46.4902 197.939 46.4902C198.184 46.4902 198.375 46.4397 198.513 46.3388C198.657 46.2325 198.742 46.0412 198.768 45.7649H199.43ZM196.632 50.1406C196.632 50.1884 196.63 50.2575 196.624 50.3478C196.624 50.4328 196.622 50.5258 196.616 50.6268C196.611 50.7224 196.606 50.8154 196.6 50.9057C196.595 50.9907 196.59 51.0598 196.584 51.113L198.872 47.5343H199.733V51.8064H199.079V49.2878C199.079 49.2027 199.079 49.0912 199.079 48.953C199.084 48.8149 199.09 48.6794 199.095 48.5465C199.1 48.4084 199.106 48.3048 199.111 48.2357L196.84 51.8064H195.971V47.5343H196.632V50.1406Z" fill="#01A8DB"/>
</g>
</svg>
