<svg width="20" height="17" viewBox="0 0 20 17" fill="none" xmlns="http://www.w3.org/2000/svg">
<path d="M17.9844 1.01657C17.9844 1.01657 19.765 0.322197 19.6161 2.0084C19.567 2.70278 19.122 5.13332 18.7755 7.76186L17.5884 15.5489C17.5884 15.5489 17.4894 16.6897 16.5989 16.8882C15.7088 17.0862 14.3732 16.1938 14.1257 15.9954C13.9277 15.8464 10.416 13.6143 9.17938 12.5235C8.83288 12.2256 8.43688 11.6307 9.22888 10.9363L14.4227 5.9762C15.0162 5.38036 15.6098 3.99161 13.1366 5.67828L6.21121 10.3899C6.21121 10.3899 5.41967 10.8863 3.93605 10.4399L0.720382 9.44761C0.720382 9.44761 -0.466701 8.70374 1.56142 7.95986C6.50821 5.62878 12.5926 3.2482 17.984 1.01611" fill="#4F94E4"/>
</svg>
