<svg width="22" height="22" viewBox="0 0 22 22" fill="none" xmlns="http://www.w3.org/2000/svg">
<path fill-rule="evenodd" clip-rule="evenodd" d="M11 1.83331C5.93723 1.83331 1.83331 5.93723 1.83331 11C1.83331 12.7325 2.31456 14.355 3.15148 15.7373L2.33381 18.5166C2.28687 18.6762 2.28378 18.8455 2.32487 19.0067C2.36596 19.1679 2.44972 19.315 2.56734 19.4326C2.68496 19.5502 2.8321 19.634 2.99328 19.6751C3.15446 19.7162 3.32374 19.7131 3.48331 19.6661L6.26265 18.8485C7.69149 19.7128 9.33003 20.1688 11 20.1666C16.0627 20.1666 20.1666 16.0627 20.1666 11C20.1666 5.93723 16.0627 1.83331 11 1.83331ZM8.92648 13.0744C10.7809 14.9279 12.551 15.1726 13.1761 15.1956C14.1267 15.2304 15.0526 14.5044 15.4128 13.662C15.4579 13.5571 15.4742 13.4421 15.46 13.3288C15.4458 13.2155 15.4017 13.1081 15.3321 13.0176C14.8298 12.3759 14.1506 11.9148 13.4869 11.4565C13.3484 11.3604 13.1781 11.3219 13.0117 11.3489C12.8454 11.3759 12.696 11.4664 12.595 11.6013L12.045 12.4401C12.0159 12.485 11.9709 12.5172 11.9189 12.5301C11.867 12.543 11.8121 12.5358 11.7654 12.5097C11.3923 12.2961 10.8487 11.9331 10.4582 11.5426C10.0677 11.1521 9.72673 10.6333 9.53515 10.2841C9.51197 10.2396 9.50542 10.1883 9.51668 10.1394C9.52794 10.0905 9.55626 10.0472 9.59656 10.0173L10.4436 9.38848C10.5648 9.28361 10.6431 9.13769 10.6634 8.97868C10.6836 8.81968 10.6446 8.65878 10.5536 8.52681C10.1429 7.92548 9.6644 7.16098 8.97048 6.65406C8.88073 6.58958 8.77586 6.54937 8.66601 6.53733C8.55616 6.52528 8.44506 6.54181 8.34348 6.58531C7.50015 6.94648 6.77048 7.87231 6.80531 8.82473C6.82823 9.4499 7.07298 11.22 8.92648 13.0744Z" fill="#22A83F"/>
</svg>
